<mxfile host="app.diagrams.net" agent="Mozilla/5.0 (Windows NT 10.0; Win64; x64; rv:129.0) Gecko/20100101 Firefox/129.0" version="24.7.7">
  <diagram name="Page-1" id="YZC_deePfDSnUjYZuVXH">
    <mxGraphModel dx="675" dy="1011" grid="1" gridSize="10" guides="1" tooltips="1" connect="1" arrows="1" fold="1" page="1" pageScale="1" pageWidth="850" pageHeight="1100" math="0" shadow="0">
      <root>
        <mxCell id="0" />
        <mxCell id="1" parent="0" />
        <mxCell id="Y_aocJb4mFkUSH53q8Zt-1" value="&lt;div&gt;&lt;font style=&quot;font-size: 20px;&quot;&gt;Specifications&lt;/font&gt;&lt;/div&gt;&lt;br&gt;&lt;div&gt;&lt;br&gt;&lt;/div&gt;&lt;div style=&quot;font-size: 20px;&quot;&gt;&lt;u&gt;Input&lt;/u&gt;&lt;br&gt;Age1&lt;br&gt;Age2&lt;br&gt;Age3&lt;br&gt;&lt;br&gt;&lt;u&gt;Output&lt;/u&gt;&lt;br&gt;sum&lt;br&gt;average&lt;br&gt;&lt;br&gt;&lt;u&gt;Initialization&lt;br&gt;&lt;/u&gt;&lt;br&gt;&lt;/div&gt;" style="text;html=1;whiteSpace=wrap;overflow=hidden;rounded=0;" vertex="1" parent="1">
          <mxGeometry width="360" height="410" as="geometry" />
        </mxCell>
      </root>
    </mxGraphModel>
  </diagram>
</mxfile>
